<?xml version="1.0" standalone="no"?>
<!DOCTYPE svg PUBLIC "-//W3C//DTD SVG 20010904//EN"
 "http://www.w3.org/TR/2001/REC-SVG-20010904/DTD/svg10.dtd">
<svg version="1.0" xmlns="http://www.w3.org/2000/svg"
 width="1000.000000pt" height="1000.000000pt" viewBox="0 0 1000.000000 1000.000000"
 preserveAspectRatio="xMidYMid meet">
<metadata>
Created by potrace 1.14, written by Peter Selinger 2001-2017
</metadata>
<g transform="translate(0.000000,1000.000000) scale(0.100000,-0.100000)"
fill="#000000" stroke="none">
<path d="M1839 9996 c-2 -2 -31 -6 -64 -10 -417 -44 -846 -244 -1149 -534
-127 -123 -258 -281 -321 -390 -5 -9 -17 -28 -26 -42 -20 -30 -89 -167 -119
-233 -26 -59 -97 -271 -104 -312 -3 -16 -8 -41 -11 -55 -18 -92 -27 -143 -33
-200 -10 -91 -9 -6380 1 -6460 7 -54 22 -136 52 -273 15 -69 86 -254 142 -367
104 -213 250 -413 418 -571 32 -29 63 -59 69 -64 79 -74 276 -205 414 -274
107 -55 307 -131 378 -145 10 -2 48 -11 84 -19 192 -44 66 -42 3420 -42 1752
0 3210 3 3240 8 339 46 609 145 875 322 470 312 776 788 872 1355 17 99 18
278 18 3290 0 1752 -3 3212 -7 3245 -29 240 -95 461 -201 671 -52 104 -172
294 -214 339 -10 11 -29 34 -41 50 -31 41 -165 177 -230 233 -194 169 -466
318 -724 396 -123 37 -127 38 -303 66 -116 18 -232 19 -3276 19 -1736 1 -3158
-1 -3160 -3z"/>
</g>
</svg>
