<svg version="1.1" id="Layer_1" xmlns="http://www.w3.org/2000/svg" xmlns:xlink="http://www.w3.org/1999/xlink" x="0px" y="0px"
	 width="100%" viewBox="0 0 1920 1080" enable-background="new 0 0 1920 1080" xml:space="preserve">
<path fill="#FFFFFF" opacity="1.000000" stroke="none" 
	d="
M1034.000000,1.000006 
	C1056.020874,1.000000 1078.041870,1.000000 1100.611816,1.384932 
	C1104.941650,16.529615 1108.570190,31.330681 1112.557007,46.034554 
	C1115.195923,55.767536 1122.968750,60.408466 1131.623413,57.971718 
	C1140.054565,55.597874 1143.842529,47.385704 1141.271973,37.578827 
	C1138.082886,25.411692 1135.082275,13.195152 1132.000000,0.999989 
	C1149.687622,1.000000 1167.375122,1.000000 1185.306519,1.368654 
	C1185.896240,3.193297 1186.209595,4.657920 1186.592651,6.104065 
	C1218.074585,124.935661 1280.287109,224.706497 1373.980347,304.169312 
	C1478.041626,392.425415 1598.954224,438.194763 1735.266113,442.763031 
	C1798.477173,444.881409 1860.427124,436.294647 1921.000000,418.000000 
	C1921.000000,435.687561 1921.000000,453.375122 1920.642334,471.662842 
	C1905.088379,475.853363 1889.928833,479.611176 1874.682251,482.974548 
	C1864.735718,485.168793 1858.764160,492.120117 1860.292358,500.585815 
	C1861.974243,509.902832 1870.024292,514.719299 1880.330078,512.552124 
	C1885.697876,511.423340 1891.053833,510.238678 1896.422119,509.111938 
	C1904.611572,507.393066 1912.807129,505.702545 1921.000000,504.000000 
	C1921.000000,566.687561 1921.000000,629.375122 1920.566895,692.624023 
	C1911.205933,692.169250 1902.295288,690.955322 1893.347290,690.169495 
	C1839.082397,685.403687 1785.232300,688.201477 1731.999390,699.979187 
	C1605.477539,727.972290 1502.342163,793.356445 1422.273438,895.035522 
	C1409.745605,910.944519 1398.961548,928.226685 1387.078125,944.570801 
	C1310.095215,904.996460 1229.280640,893.285583 1144.971191,910.455811 
	C1057.685181,928.232117 986.360107,973.000305 930.991150,1042.761353 
	C921.436096,1054.800171 913.619568,1068.218750 905.000000,1081.000000 
	C881.645752,1081.000000 858.291565,1081.000000 834.347229,1080.649902 
	C825.546021,1059.312622 818.159851,1037.951294 808.870483,1017.452698 
	C801.019043,1000.127258 790.962219,983.801331 782.046631,966.680054 
	C783.943542,958.921875 780.580566,954.205872 772.561829,952.984009 
	C767.048584,945.368530 761.810364,937.949463 756.877319,930.293640 
	C803.427490,891.486145 823.135376,842.196106 813.627380,782.805481 
	C798.464050,688.089600 698.879089,630.978577 608.475891,664.755432 
	C561.668640,682.243835 530.783203,715.765198 514.542236,763.130005 
	C505.228149,760.697693 496.308838,758.274780 487.577667,755.536743 
	C488.751556,753.509277 490.049774,751.903687 490.675690,750.068726 
	C498.676056,726.614319 511.182983,705.849915 527.645386,687.384277 
	C532.254822,682.213989 532.159119,676.298035 527.725281,672.340820 
	C523.325806,668.414368 517.262390,669.028381 512.754089,674.049622 
	C494.428772,694.459900 480.532776,717.510803 471.928375,743.604675 
	C471.060669,746.236023 471.735565,749.376038 471.227966,752.253601 
	C469.603699,752.088684 468.431793,752.023438 467.290558,751.800964 
	C428.692352,744.277283 389.763397,741.437927 350.500946,743.813232 
	C337.714630,744.586792 324.959930,745.883484 312.047363,746.631958 
	C230.169724,674.814148 137.464508,655.712769 34.096420,688.532593 
	C22.779758,692.125610 12.018722,697.468628 0.999994,702.000000 
	C1.000000,605.979126 1.000000,509.958221 1.412866,413.632904 
	C3.313394,413.153839 4.814818,413.056274 6.286727,412.793427 
	C53.812298,404.305634 97.908447,387.101990 138.487579,360.891357 
	C159.247940,347.481934 178.107574,331.728455 196.435730,314.873596 
	C320.219452,337.941528 442.891815,334.697418 564.931030,305.453308 
	C565.260193,307.505157 565.487549,309.149811 565.765747,310.785828 
	C569.365784,331.954681 585.031677,347.184723 606.727600,350.617554 
	C625.771790,353.630829 646.049988,343.256104 655.372498,325.442871 
	C663.762573,309.411469 662.512878,293.486908 654.564697,277.599670 
	C662.112549,274.574951 669.270569,271.758026 676.646973,269.167358 
	C677.516235,270.145111 678.178894,270.886749 678.816406,271.649506 
	C699.650513,296.580322 726.365784,307.313904 758.205933,301.497406 
	C790.659668,295.568756 812.144836,275.659393 822.464233,244.247955 
	C827.929565,227.612000 826.760498,210.830093 822.361206,194.070129 
	C902.776733,142.406509 972.512268,79.397697 1031.875854,4.919087 
	C1032.787720,3.775094 1033.300903,2.313434 1034.000000,1.000006 
M1235.075928,461.435699 
	C1188.991211,394.766693 1107.649170,362.246582 1029.590576,379.283722 
	C922.658142,402.622894 855.200500,505.078949 875.863770,612.767395 
	C897.327698,724.629150 1011.900085,796.230286 1121.742798,766.427490 
	C1254.975830,730.278442 1312.339722,576.777710 1235.075928,461.435699 
M1651.221313,502.714539 
	C1652.363403,493.411316 1647.582275,486.979279 1638.548340,484.950348 
	C1618.299561,480.402710 1597.936768,476.238495 1577.926392,470.793030 
	C1560.982422,466.182007 1544.451904,460.040131 1527.770996,454.478149 
	C1518.801758,451.487549 1511.000122,454.204865 1507.494019,461.770081 
	C1503.503174,470.381500 1507.841187,479.130127 1517.977905,482.896881 
	C1555.107422,496.694183 1593.109009,507.314301 1632.121460,514.264648 
	C1641.811890,515.991028 1647.872070,512.583984 1651.221313,502.714539 
M1303.419556,310.080597 
	C1285.137329,289.398132 1266.767944,268.791656 1248.618652,247.993195 
	C1242.002075,240.410934 1233.391479,238.801544 1226.302246,244.507706 
	C1219.715332,249.809662 1219.039795,258.851929 1224.801147,266.309052 
	C1249.285767,298.000122 1276.381836,327.276428 1306.188599,354.028656 
	C1313.534424,360.621674 1322.425415,360.545654 1328.382568,354.017426 
	C1334.193359,347.649719 1333.357422,338.457581 1326.390503,331.872131 
	C1318.891602,324.783997 1311.408569,317.679047 1303.419556,310.080597 
M1820.383301,492.647308 
	C1817.252197,492.479767 1814.084961,491.920441 1810.995605,492.205231 
	C1780.248047,495.039337 1749.467896,495.854736 1718.630493,494.093140 
	C1710.980469,493.656158 1703.334351,492.984009 1695.679077,492.852295 
	C1688.316162,492.725586 1682.294556,498.218323 1681.152710,505.451324 
	C1680.082764,512.230042 1684.296509,519.515015 1690.848022,521.702698 
	C1693.178589,522.480896 1695.732422,522.724243 1698.207397,522.916687 
	C1737.333862,525.959045 1776.434814,525.684875 1815.513794,522.003845 
	C1823.647827,521.237671 1829.271118,516.654602 1830.655762,509.245605 
	C1831.893066,502.624146 1828.363647,496.553589 1820.383301,492.647308 
M1350.073120,388.027649 
	C1351.886719,390.154205 1353.377441,392.714050 1355.562500,394.342285 
	C1387.916748,418.450531 1422.207397,439.411011 1458.473633,457.113495 
	C1466.921265,461.237030 1475.473145,458.669952 1479.416260,450.972046 
	C1483.349609,443.293549 1480.405029,434.561523 1472.027466,430.428833 
	C1437.333496,413.313934 1404.453491,393.254150 1373.323486,370.293671 
	C1367.320557,365.866058 1360.657837,365.761902 1355.191406,369.556732 
	C1349.548462,373.474121 1347.662842,379.716461 1350.073120,388.027649 
M1145.519775,134.983170 
	C1157.849243,162.072342 1171.937744,188.213943 1187.819458,213.385132 
	C1193.222534,221.948532 1201.936157,224.397034 1209.499634,219.575851 
	C1216.866577,214.879959 1218.525513,205.980347 1213.325806,197.689651 
	C1193.076416,165.402374 1175.831543,131.593094 1161.559326,96.255943 
	C1157.757568,86.843147 1149.610718,82.990028 1141.257446,86.418533 
	C1133.208862,89.721962 1130.040771,98.217125 1133.723877,107.274170 
	C1137.410278,116.339455 1141.334961,125.307823 1145.519775,134.983170 
M818.586731,933.096375 
	C832.945435,914.963684 843.962036,895.006958 851.320312,873.059265 
	C853.717712,865.908386 851.480896,860.343079 845.487061,858.407349 
	C839.864014,856.591431 834.904236,859.750549 832.371521,866.661682 
	C830.774841,871.018799 829.186523,875.386108 827.377625,879.657043 
	C819.662292,897.873474 809.007935,914.217957 795.913757,929.028748 
	C791.396729,934.138000 791.630737,940.235413 796.114685,944.054321 
	C800.599792,947.874207 806.535645,947.113892 811.053589,942.037598 
	C813.485535,939.305298 815.775391,936.446655 818.586731,933.096375 
M859.064148,774.362610 
	C857.027527,765.799683 855.204102,757.178528 852.887817,748.691833 
	C850.989929,741.738220 845.578491,738.589905 839.851929,740.485229 
	C834.014526,742.417175 832.226379,747.572876 833.809509,754.749451 
	C836.561890,767.226440 839.672791,779.735291 840.925415,792.399719 
	C842.097595,804.249756 841.039307,816.318787 840.991394,828.291565 
	C840.967346,834.289307 845.000916,838.736633 850.583801,838.950989 
	C855.868774,839.153809 860.345398,835.172668 860.930481,829.487915 
	C862.799927,811.325989 862.354126,793.228333 859.064148,774.362610 
M623.358154,611.835327 
	C594.752502,616.932922 568.856079,628.420288 545.260986,645.199768 
	C540.316772,648.715759 539.576965,654.730347 542.950317,659.269592 
	C546.350098,663.844482 552.188110,664.608398 557.570312,660.873535 
	C578.017334,646.684814 600.292114,636.789551 624.719910,631.791077 
	C630.447998,630.618958 633.931458,626.457947 633.799500,621.500610 
	C633.664246,616.417603 630.224609,612.948975 623.358154,611.835327 
M708.241760,634.072205 
	C716.990112,637.161926 725.756592,640.201599 734.480652,643.358215 
	C740.806152,645.646851 746.374695,643.543640 748.495361,637.901184 
	C750.496521,632.576721 748.004395,627.524780 741.842468,624.811646 
	C717.206177,613.964417 691.401917,608.435364 664.498657,608.024780 
	C656.340454,607.900269 651.681396,611.460632 651.557495,617.777283 
	C651.432434,624.158569 656.091248,627.306946 664.071960,628.139832 
	C678.568665,629.652893 692.982117,631.963379 708.241760,634.072205 
M820.946411,721.692871 
	C826.473145,724.324463 830.873535,723.816467 834.122620,720.171570 
	C837.329712,716.573669 837.711243,712.081421 834.539001,707.302856 
	C828.840210,698.718140 823.214661,690.041382 816.884644,681.928894 
	C806.380676,668.467102 793.885559,656.954285 780.119446,646.842041 
	C776.225159,643.981323 772.086365,643.589722 768.041931,646.290466 
	C764.136658,648.898315 762.674683,652.972412 764.236389,657.223022 
	C765.188843,659.815613 767.478333,662.244385 769.755371,663.971375 
	C788.840210,678.445557 804.506287,695.931763 816.839417,716.445374 
	C817.855530,718.135498 819.198120,719.629333 820.946411,721.692871 
z"/>
<path fill="#000000" opacity="1.000000" stroke="none" 
	d="
M1921.000000,417.531342 
	C1860.427124,436.294647 1798.477173,444.881409 1735.266113,442.763031 
	C1598.954224,438.194763 1478.041626,392.425415 1373.980347,304.169312 
	C1280.287109,224.706497 1218.074585,124.935661 1186.592651,6.104065 
	C1186.209595,4.657920 1185.896240,3.193297 1185.775146,1.368654 
	C1430.906982,1.000000 1675.814087,1.000000 1921.000000,1.000000 
	C1921.000000,139.687439 1921.000000,278.375061 1921.000000,417.531342 
z"/>
<path fill="#0D00FF" opacity="1.000000" stroke="none" 
	d="
M487.389557,755.851929 
	C496.308838,758.274780 505.228149,760.697693 514.807495,763.372314 
	C517.836975,764.395203 520.205688,765.169128 522.576172,765.937134 
	C602.131409,791.711487 670.370361,835.272522 727.240784,896.541626 
	C737.414917,907.502686 746.814758,919.182495 756.572144,930.530396 
	C761.810364,937.949463 767.048584,945.368530 772.653503,953.316040 
	C775.973938,958.240723 778.927673,962.636902 781.881348,967.033020 
	C790.962219,983.801331 801.019043,1000.127258 808.870483,1017.452698 
	C818.159851,1037.951294 825.546021,1059.312622 833.878540,1080.649902 
	C748.979126,1081.000000 663.958191,1081.000000 578.282715,1080.720703 
	C548.220398,1039.303833 510.032257,1009.434387 462.743835,991.446167 
	C442.029053,983.566284 420.659882,978.208679 397.991699,976.834229 
	C374.888672,974.610596 352.326111,975.535706 329.980560,979.998962 
	C266.276978,992.723083 215.228226,1025.432617 176.573105,1077.568359 
	C175.839813,1078.557373 175.515274,1079.849365 175.000015,1081.000000 
	C117.076286,1081.000000 59.152569,1081.000000 1.000000,1081.000000 
	C1.000000,1028.312622 1.000000,975.625000 1.276792,922.759644 
	C2.496564,921.662109 3.474633,920.775269 4.377373,919.817444 
	C20.130920,903.103760 34.998505,885.438782 51.779419,869.830505 
	C111.597313,814.192749 181.510422,776.707520 260.831696,757.110962 
	C277.755920,752.929810 295.061096,750.290527 312.190765,746.940918 
	C324.959930,745.883484 337.714630,744.586792 350.500946,743.813232 
	C389.763397,741.437927 428.692352,744.277283 467.290558,751.800964 
	C468.431793,752.023438 469.603699,752.088684 471.511963,752.417847 
	C477.304932,753.689636 482.347260,754.770752 487.389557,755.851929 
z"/>
<path fill="#0D00FF" opacity="1.000000" stroke="none" 
	d="
M1387.371338,944.874023 
	C1398.961548,928.226685 1409.745605,910.944519 1422.273438,895.035522 
	C1502.342163,793.356445 1605.477539,727.972290 1731.999390,699.979187 
	C1785.232300,688.201477 1839.082397,685.403687 1893.347290,690.169495 
	C1902.295288,690.955322 1911.205933,692.169250 1920.566895,693.092651 
	C1921.000000,822.275574 1921.000000,951.551208 1921.000000,1081.000000 
	C1723.979126,1081.000000 1526.958130,1081.000000 1329.521606,1080.618896 
	C1336.470947,1058.935669 1343.623779,1037.556885 1351.297363,1016.366516 
	C1354.727905,1006.893433 1359.203613,997.798889 1363.498413,988.318420 
	C1371.651733,973.694214 1379.511475,959.284119 1387.371338,944.874023 
z"/>
<path fill="#000000" opacity="1.000000" stroke="none" 
	d="
M564.852783,305.042084 
	C442.891815,334.697418 320.219452,337.941528 196.592102,314.591919 
	C197.377686,313.145874 198.410477,312.061676 199.445877,310.979950 
	C265.245880,242.236786 299.569855,160.346375 300.697174,65.151321 
	C300.950134,43.789089 297.659332,22.384884 296.000000,1.000000 
	C541.687561,1.000000 787.375183,1.000000 1033.531372,1.000006 
	C1033.300903,2.313434 1032.787720,3.775094 1031.875854,4.919087 
	C972.512268,79.397697 902.776733,142.406509 822.134033,193.784027 
	C806.663757,154.791138 772.155457,133.848541 731.488647,138.934601 
	C693.607483,143.672272 662.457153,177.976776 661.031433,216.246552 
	C660.310974,235.585541 665.743469,252.998932 676.428528,268.941101 
	C669.270569,271.758026 662.112549,274.574951 654.371338,277.337280 
	C652.974609,276.235565 652.152222,275.195160 651.348755,274.140411 
	C636.578491,254.749786 609.928528,249.172974 589.159973,261.428741 
	C572.657654,271.166931 565.045105,286.095123 564.852783,305.042084 
z"/>
<path fill="#0D00FF" opacity="1.000000" stroke="none" 
	d="
M295.531342,1.000000 
	C297.659332,22.384884 300.950134,43.789089 300.697174,65.151321 
	C299.569855,160.346375 265.245880,242.236786 199.445877,310.979950 
	C198.410477,312.061676 197.377686,313.145874 196.187302,314.510620 
	C178.107574,331.728455 159.247940,347.481934 138.487579,360.891357 
	C97.908447,387.101990 53.812298,404.305634 6.286727,412.793427 
	C4.814818,413.056274 3.313394,413.153839 1.412866,413.164246 
	C1.000000,275.751648 1.000000,138.503311 1.000000,1.000000 
	C99.020744,1.000000 197.041718,1.000000 295.531342,1.000000 
z"/>
<path fill="#FFFFFF" opacity="1.000000" stroke="none" 
	d="
M1363.204834,988.532532 
	C1359.203613,997.798889 1354.727905,1006.893433 1351.297363,1016.366516 
	C1343.623779,1037.556885 1336.470947,1058.935669 1329.052979,1080.618896 
	C1207.979126,1081.000000 1086.958252,1081.000000 965.556274,1080.671875 
	C1028.771973,998.217468 1112.392456,955.208862 1216.325684,953.174377 
	C1268.147339,952.160034 1317.123779,964.784424 1363.204834,988.532532 
z"/>
<path fill="#000001" opacity="1.000000" stroke="none" 
	d="
M312.047363,746.631958 
	C295.061096,750.290527 277.755920,752.929810 260.831696,757.110962 
	C181.510422,776.707520 111.597313,814.192749 51.779419,869.830505 
	C34.998505,885.438782 20.130920,903.103760 4.377373,919.817444 
	C3.474633,920.775269 2.496564,921.662109 1.276792,922.291016 
	C1.000000,848.979126 1.000000,775.958191 0.999994,702.468628 
	C12.018722,697.468628 22.779758,692.125610 34.096420,688.532593 
	C137.464508,655.712769 230.169724,674.814148 312.047363,746.631958 
z"/>
<path fill="#010101" opacity="1.000000" stroke="none" 
	d="
M1363.498413,988.318420 
	C1317.123779,964.784424 1268.147339,952.160034 1216.325684,953.174377 
	C1112.392456,955.208862 1028.771973,998.217468 965.087646,1080.671875 
	C945.312439,1081.000000 925.624878,1081.000000 905.468628,1081.000000 
	C913.619568,1068.218750 921.436096,1054.800171 930.991150,1042.761353 
	C986.360107,973.000305 1057.685181,928.232117 1144.971191,910.455811 
	C1229.280640,893.285583 1310.095215,904.996460 1387.078247,944.570801 
	C1379.511475,959.284119 1371.651733,973.694214 1363.498413,988.318420 
z"/>
<path fill="#000001" opacity="1.000000" stroke="none" 
	d="
M175.468674,1081.000000 
	C175.515274,1079.849365 175.839813,1078.557373 176.573105,1077.568359 
	C215.228226,1025.432617 266.276978,992.723083 329.980560,979.998962 
	C352.326111,975.535706 374.888672,974.610596 397.935913,977.281128 
	C396.339172,989.298950 394.805176,1000.817932 392.339844,1012.133911 
	C387.055542,1036.388794 377.460419,1059.068726 366.000000,1081.000000 
	C302.645782,1081.000000 239.291550,1081.000000 175.468674,1081.000000 
z"/>
<path fill="#FEFEFF" opacity="1.000000" stroke="none" 
	d="
M366.468658,1081.000000 
	C377.460419,1059.068726 387.055542,1036.388794 392.339844,1012.133911 
	C394.805176,1000.817932 396.339172,989.298950 398.351074,977.425110 
	C420.659882,978.208679 442.029053,983.566284 462.743835,991.446167 
	C510.032257,1009.434387 548.220398,1039.303833 577.814087,1080.720703 
	C507.645782,1081.000000 437.291534,1081.000000 366.468658,1081.000000 
z"/>
<path fill="#030303" opacity="1.000000" stroke="none" 
	d="
M1921.000000,503.531311 
	C1912.807129,505.702545 1904.611572,507.393066 1896.422119,509.111938 
	C1891.053833,510.238678 1885.697876,511.423340 1880.330078,512.552124 
	C1870.024292,514.719299 1861.974243,509.902832 1860.292358,500.585815 
	C1858.764160,492.120117 1864.735718,485.168793 1874.682251,482.974548 
	C1889.928833,479.611176 1905.088379,475.853363 1920.642334,472.131500 
	C1921.000000,482.354218 1921.000000,492.708466 1921.000000,503.531311 
z"/>
<path fill="#030303" opacity="1.000000" stroke="none" 
	d="
M1131.531494,0.999989 
	C1135.082275,13.195152 1138.082886,25.411692 1141.271973,37.578827 
	C1143.842529,47.385704 1140.054565,55.597874 1131.623413,57.971718 
	C1122.968750,60.408466 1115.195923,55.767536 1112.557007,46.034554 
	C1108.570190,31.330681 1104.941650,16.529615 1101.080444,1.384932 
	C1111.020874,1.000000 1121.041870,1.000000 1131.531494,0.999989 
z"/>
<path fill="#0E01FF" opacity="1.000000" stroke="none" 
	d="
M1235.289185,461.726196 
	C1312.339722,576.777710 1254.975830,730.278442 1121.742798,766.427490 
	C1011.900085,796.230286 897.327698,724.629150 875.863770,612.767395 
	C855.200500,505.078949 922.658142,402.622894 1029.590576,379.283722 
	C1107.649170,362.246582 1188.991211,394.766693 1235.289185,461.726196 
M1167.813477,595.125671 
	C1170.584351,581.588623 1170.685669,568.080627 1168.090454,554.459778 
	C1158.262939,502.879547 1106.417236,467.045471 1054.724121,476.255951 
	C1001.592407,485.722809 966.641602,533.007812 972.894226,586.963806 
	C978.304382,633.649902 1019.626587,671.540771 1066.689941,672.970886 
	C1115.239502,674.446045 1156.011841,643.317383 1167.813477,595.125671 
z"/>
<path fill="#000000" opacity="1.000000" stroke="none" 
	d="
M756.877380,930.293640 
	C746.814758,919.182495 737.414917,907.502686 727.240784,896.541626 
	C670.370361,835.272522 602.131409,791.711487 522.576172,765.937134 
	C520.205688,765.169128 517.836975,764.395203 515.202271,763.381714 
	C530.783203,715.765198 561.668640,682.243835 608.475891,664.755432 
	C698.879089,630.978577 798.464050,688.089600 813.627380,782.805481 
	C823.135376,842.196106 803.427490,891.486145 756.877380,930.293640 
z"/>
<path fill="#0D00FF" opacity="1.000000" stroke="none" 
	d="
M676.646973,269.167358 
	C665.743469,252.998932 660.310974,235.585541 661.031433,216.246552 
	C662.457153,177.976776 693.607483,143.672272 731.488647,138.934601 
	C772.155457,133.848541 806.663757,154.791138 821.802124,193.892853 
	C826.760498,210.830093 827.929565,227.612000 822.464233,244.247955 
	C812.144836,275.659393 790.659668,295.568756 758.205933,301.497406 
	C726.365784,307.313904 699.650513,296.580322 678.816406,271.649506 
	C678.178894,270.886749 677.516235,270.145111 676.646973,269.167358 
z"/>
<path fill="#0E01FF" opacity="1.000000" stroke="none" 
	d="
M564.931030,305.453308 
	C565.045105,286.095123 572.657654,271.166931 589.159973,261.428741 
	C609.928528,249.172974 636.578491,254.749786 651.348755,274.140411 
	C652.152222,275.195160 652.974609,276.235565 653.981445,277.545074 
	C662.512878,293.486908 663.762573,309.411469 655.372498,325.442871 
	C646.049988,343.256104 625.771790,353.630829 606.727600,350.617554 
	C585.031677,347.184723 569.365784,331.954681 565.765747,310.785828 
	C565.487549,309.149811 565.260193,307.505157 564.931030,305.453308 
z"/>
<path fill="#020202" opacity="1.000000" stroke="none" 
	d="
M1651.153076,503.097534 
	C1647.872070,512.583984 1641.811890,515.991028 1632.121460,514.264648 
	C1593.109009,507.314301 1555.107422,496.694183 1517.977905,482.896881 
	C1507.841187,479.130127 1503.503174,470.381500 1507.494019,461.770081 
	C1511.000122,454.204865 1518.801758,451.487549 1527.770996,454.478149 
	C1544.451904,460.040131 1560.982422,466.182007 1577.926392,470.793030 
	C1597.936768,476.238495 1618.299561,480.402710 1638.548340,484.950348 
	C1647.582275,486.979279 1652.363403,493.411316 1651.153076,503.097534 
z"/>
<path fill="#020202" opacity="1.000000" stroke="none" 
	d="
M1303.669189,310.330994 
	C1311.408569,317.679047 1318.891602,324.783997 1326.390503,331.872131 
	C1333.357422,338.457581 1334.193359,347.649719 1328.382568,354.017426 
	C1322.425415,360.545654 1313.534424,360.621674 1306.188599,354.028656 
	C1276.381836,327.276428 1249.285767,298.000122 1224.801147,266.309052 
	C1219.039795,258.851929 1219.715332,249.809662 1226.302246,244.507706 
	C1233.391479,238.801544 1242.002075,240.410934 1248.618652,247.993195 
	C1266.767944,268.791656 1285.137329,289.398132 1303.669189,310.330994 
z"/>
<path fill="#020202" opacity="1.000000" stroke="none" 
	d="
M1820.770020,492.777893 
	C1828.363647,496.553589 1831.893066,502.624146 1830.655762,509.245605 
	C1829.271118,516.654602 1823.647827,521.237671 1815.513794,522.003845 
	C1776.434814,525.684875 1737.333862,525.959045 1698.207397,522.916687 
	C1695.732422,522.724243 1693.178589,522.480896 1690.848022,521.702698 
	C1684.296509,519.515015 1680.082764,512.230042 1681.152710,505.451324 
	C1682.294556,498.218323 1688.316162,492.725586 1695.679077,492.852295 
	C1703.334351,492.984009 1710.980469,493.656158 1718.630493,494.093140 
	C1749.467896,495.854736 1780.248047,495.039337 1810.995605,492.205231 
	C1814.084961,491.920441 1817.252197,492.479767 1820.770020,492.777893 
z"/>
<path fill="#020202" opacity="1.000000" stroke="none" 
	d="
M1349.957520,387.646606 
	C1347.662842,379.716461 1349.548462,373.474121 1355.191406,369.556732 
	C1360.657837,365.761902 1367.320557,365.866058 1373.323486,370.293671 
	C1404.453491,393.254150 1437.333496,413.313934 1472.027466,430.428833 
	C1480.405029,434.561523 1483.349609,443.293549 1479.416260,450.972046 
	C1475.473145,458.669952 1466.921265,461.237030 1458.473633,457.113495 
	C1422.207397,439.411011 1387.916748,418.450531 1355.562500,394.342285 
	C1353.377441,392.714050 1351.886719,390.154205 1349.957520,387.646606 
z"/>
<path fill="#020202" opacity="1.000000" stroke="none" 
	d="
M1145.337402,134.650940 
	C1141.334961,125.307823 1137.410278,116.339455 1133.723877,107.274170 
	C1130.040771,98.217125 1133.208862,89.721962 1141.257446,86.418533 
	C1149.610718,82.990028 1157.757568,86.843147 1161.559326,96.255943 
	C1175.831543,131.593094 1193.076416,165.402374 1213.325806,197.689651 
	C1218.525513,205.980347 1216.866577,214.879959 1209.499634,219.575851 
	C1201.936157,224.397034 1193.222534,221.948532 1187.819458,213.385132 
	C1171.937744,188.213943 1157.849243,162.072342 1145.337402,134.650940 
z"/>
<path fill="#040404" opacity="1.000000" stroke="none" 
	d="
M818.358032,933.370667 
	C815.775391,936.446655 813.485535,939.305298 811.053589,942.037598 
	C806.535645,947.113892 800.599792,947.874207 796.114685,944.054321 
	C791.630737,940.235413 791.396729,934.138000 795.913757,929.028748 
	C809.007935,914.217957 819.662292,897.873474 827.377625,879.657043 
	C829.186523,875.386108 830.774841,871.018799 832.371521,866.661682 
	C834.904236,859.750549 839.864014,856.591431 845.487061,858.407349 
	C851.480896,860.343079 853.717712,865.908386 851.320312,873.059265 
	C843.962036,895.006958 832.945435,914.963684 818.358032,933.370667 
z"/>
<path fill="#030303" opacity="1.000000" stroke="none" 
	d="
M859.120422,774.793457 
	C862.354126,793.228333 862.799927,811.325989 860.930481,829.487915 
	C860.345398,835.172668 855.868774,839.153809 850.583801,838.950989 
	C845.000916,838.736633 840.967346,834.289307 840.991394,828.291565 
	C841.039307,816.318787 842.097595,804.249756 840.925415,792.399719 
	C839.672791,779.735291 836.561890,767.226440 833.809509,754.749451 
	C832.226379,747.572876 834.014526,742.417175 839.851929,740.485229 
	C845.578491,738.589905 850.989929,741.738220 852.887817,748.691833 
	C855.204102,757.178528 857.027527,765.799683 859.120422,774.793457 
z"/>
<path fill="#040404" opacity="1.000000" stroke="none" 
	d="
M623.788940,611.837708 
	C630.224609,612.948975 633.664246,616.417603 633.799500,621.500610 
	C633.931458,626.457947 630.447998,630.618958 624.719910,631.791077 
	C600.292114,636.789551 578.017334,646.684814 557.570312,660.873535 
	C552.188110,664.608398 546.350098,663.844482 542.950317,659.269592 
	C539.576965,654.730347 540.316772,648.715759 545.260986,645.199768 
	C568.856079,628.420288 594.752502,616.932922 623.788940,611.837708 
z"/>
<path fill="#030303" opacity="1.000000" stroke="none" 
	d="
M707.836060,634.006592 
	C692.982117,631.963379 678.568665,629.652893 664.071960,628.139832 
	C656.091248,627.306946 651.432434,624.158569 651.557495,617.777283 
	C651.681396,611.460632 656.340454,607.900269 664.498657,608.024780 
	C691.401917,608.435364 717.206177,613.964417 741.842468,624.811646 
	C748.004395,627.524780 750.496521,632.576721 748.495361,637.901184 
	C746.374695,643.543640 740.806152,645.646851 734.480652,643.358215 
	C725.756592,640.201599 716.990112,637.161926 707.836060,634.006592 
z"/>
<path fill="#030303" opacity="1.000000" stroke="none" 
	d="
M820.667725,721.453613 
	C819.198120,719.629333 817.855530,718.135498 816.839417,716.445374 
	C804.506287,695.931763 788.840210,678.445557 769.755371,663.971375 
	C767.478333,662.244385 765.188843,659.815613 764.236389,657.223022 
	C762.674683,652.972412 764.136658,648.898315 768.041931,646.290466 
	C772.086365,643.589722 776.225159,643.981323 780.119446,646.842041 
	C793.885559,656.954285 806.380676,668.467102 816.884644,681.928894 
	C823.214661,690.041382 828.840210,698.718140 834.539001,707.302856 
	C837.711243,712.081421 837.329712,716.573669 834.122620,720.171570 
	C830.873535,723.816467 826.473145,724.324463 820.667725,721.453613 
z"/>
<path fill="#030304" opacity="1.000000" stroke="none" 
	d="
M487.577667,755.536682 
	C482.347260,754.770752 477.304932,753.689636 471.978638,752.444275 
	C471.735565,749.376038 471.060669,746.236023 471.928375,743.604675 
	C480.532776,717.510803 494.428772,694.459900 512.754089,674.049622 
	C517.262390,669.028381 523.325806,668.414368 527.725281,672.340820 
	C532.159119,676.298035 532.254822,682.213989 527.645386,687.384277 
	C511.182983,705.849915 498.676056,726.614319 490.675690,750.068726 
	C490.049774,751.903687 488.751556,753.509277 487.577667,755.536682 
z"/>
<path fill="#0D0D16" opacity="1.000000" stroke="none" 
	d="
M782.046570,966.680054 
	C778.927673,962.636902 775.973938,958.240723 772.928528,953.512451 
	C780.580566,954.205872 783.943542,958.921875 782.046570,966.680054 
z"/>
<path fill="#FEFEFF" opacity="1.000000" stroke="none" 
	d="
M1167.700684,595.531677 
	C1156.011841,643.317383 1115.239502,674.446045 1066.689941,672.970886 
	C1019.626587,671.540771 978.304382,633.649902 972.894226,586.963806 
	C966.641602,533.007812 1001.592407,485.722809 1054.724121,476.255951 
	C1106.417236,467.045471 1158.262939,502.879547 1168.090454,554.459778 
	C1170.685669,568.080627 1170.584351,581.588623 1167.700684,595.531677 
z"/>
</svg>